# This file uses centimeters as units for non-parametric coordinates.

v -4.000000 2.000000 0.000000
v -4.000000 0.000000 4.000000
v -0.000000 2.000000 0.000000
v -0.000000 0.000000 4.000000
v -0.000000 0.000000 0.000000
v 4.000000 4.000000 0.000000
v 4.000000 -0.000000 0.000000
v 3.999999 4.000000 -4.000000
v -0.000001 2.000000 -4.000000
v 0.000000 -0.000000 -4.000000
v -4.000001 -0.000000 -4.000000
v -4.000000 0.000000 0.000000
v -4.000000 2.000000 -3.999999
v 4.000000 -0.000000 -4.000000
vt 0.000000 0.000000
vt 1.000000 0.000000
vt 0.000000 1.000000
vt 1.000000 1.000000
vt 0.000000 1.000000
vt 0.500000 1.000000
vt 0.000003 0.000002
vt 0.998005 0.500000
vt 0.998008 0.998008
vt 0.001992 0.998008
vt 0.001992 0.001992
vt 0.000000 0.000000
vt 1.000000 0.000000
vt 1.000000 1.000000
vt 0.000000 1.000000
vt 0.500000 1.000000
vt 0.500000 0.000000
vt 1.000000 0.000000
vt 1.000000 1.000000
vt 0.000000 1.000000
vt 0.000000 0.000000
vt 0.500000 0.000000
vt 0.500000 1.000000
vt 0.500000 1.000000
vt 0.500000 0.000000
vt 1.000000 0.000000
vt 1.000000 1.000000
vt 0.998008 0.001992
vt 0.998008 0.998008
vt 0.001992 0.998008
vt 0.001998 0.500002
vt 0.000000 0.000000
vt 1.000000 0.000000
vt 1.000000 1.000000
vt 0.000000 1.000000
vt 0.000000 1.000000
vt 0.000003 0.000002
vt 0.500000 1.000000
vn -0.000000 0.894427 0.447214
vn -0.000000 0.894427 0.447214
vn -0.000000 0.894427 0.447214
vn -0.000000 0.894427 0.447214
vn 1.000000 0.000000 0.000000
vn 1.000000 0.000000 0.000000
vn 1.000000 0.000000 0.000000
vn -0.000000 0.000000 1.000000
vn -0.000000 0.000000 1.000000
vn -0.000000 0.000000 1.000000
vn -0.000000 0.000000 1.000000
vn -0.447214 0.894427 0.000000
vn -0.447214 0.894427 0.000000
vn -0.447214 0.894427 0.000000
vn -0.447214 0.894427 0.000000
vn -0.000000 0.000000 -1.000000
vn -0.000000 0.000000 -1.000000
vn -0.000000 0.000000 -1.000000
vn -0.000000 0.000000 -1.000000
vn -1.000000 0.000000 0.000000
vn -1.000000 0.000000 0.000000
vn -1.000000 0.000000 0.000000
vn -1.000000 0.000000 0.000000
vn 1.000000 0.000000 0.000000
vn 1.000000 0.000000 0.000000
vn 1.000000 0.000000 0.000000
vn 1.000000 0.000000 0.000000
vn 0.000000 0.000000 -1.000000
vn 0.000000 0.000000 -1.000000
vn 0.000000 0.000000 -1.000000
vn 0.000000 0.000000 -1.000000
vn 0.000000 1.000000 0.000000
vn 0.000000 1.000000 0.000000
vn 0.000000 1.000000 0.000000
vn 0.000000 1.000000 0.000000
vn -1.000000 0.000000 0.000000
vn -1.000000 0.000000 0.000000
vn -1.000000 0.000000 0.000000
s off
f 1/1/1 2/2/2 4/4/3 3/3/4
f 5/5/5 3/6/6 4/7/7
f 3/8/8 5/9/9 7/10/10 6/11/11
f 8/12/12 9/13/13 3/14/14 6/15/15
f 10/16/16 11/17/17 13/18/18 9/19/19
f 11/20/20 12/21/21 1/22/22 13/23/23
f 5/24/24 10/25/25 9/26/26 3/27/27
f 8/28/28 14/29/29 10/30/30 9/31/31
f 9/32/32 13/33/33 1/34/34 3/35/35
f 12/36/36 2/37/37 1/38/38
